<svg width="21" height="11" viewBox="0 0 21 11" fill="none" xmlns="http://www.w3.org/2000/svg">
<path d="M19.66 2.74871L10.66 10.7487C10.4775 10.909 10.2429 10.9974 9.99999 10.9974C9.75709 10.9974 9.52248 10.909 9.33999 10.7487L0.339993 2.74871C0.15416 2.57021 0.0443991 2.32687 0.0335951 2.06943C0.0227911 1.81199 0.111778 1.56031 0.282002 1.36687C0.452226 1.17344 0.690547 1.05317 0.947275 1.03116C1.204 1.00914 1.45932 1.08708 1.65999 1.24871L9.99999 8.65871L18.34 1.24871C18.4373 1.15519 18.5526 1.08236 18.6789 1.0346C18.8051 0.986835 18.9398 0.965129 19.0746 0.970789C19.2095 0.976449 19.3418 1.00936 19.4637 1.06753C19.5855 1.12571 19.6942 1.20794 19.7834 1.30928C19.8726 1.41062 19.9403 1.52897 19.9826 1.65719C20.0248 1.78541 20.0406 1.92085 20.0291 2.05535C20.0175 2.18985 19.9789 2.32062 19.9155 2.43978C19.852 2.55894 19.7651 2.66403 19.66 2.74871Z" fill="#fff"/>
</svg>
